<svg id="svg" version="1.1" xmlns="http://www.w3.org/2000/svg" xmlns:xlink="http://www.w3.org/1999/xlink" width="100" height="100" viewBox="0, 0, 400,394.69026548672565"><g id="svgg"><path id="path0" d="M217.177 100.871 L 217.177 115.265 218.460 115.465 C 219.166 115.575,221.917 115.943,224.574 116.282 C 250.325 119.574,263.673 134.626,262.877 159.480 C 262.067 184.805,246.134 200.184,218.954 201.876 L 217.374 201.974 217.270 216.335 L 217.167 230.696 220.627 230.428 C 273.117 226.356,303.690 198.245,303.753 153.998 C 303.812 111.894,272.080 86.658,218.855 86.481 L 217.177 86.476 217.177 100.871 M175.518 87.286 C 170.306 87.433,153.914 87.577,139.092 87.607 L 112.142 87.660 112.142 98.650 L 112.142 109.640 119.151 110.948 C 130.822 113.127,131.460 113.226,138.203 113.904 C 141.787 114.264,145.696 114.681,146.890 114.831 L 149.062 115.104 149.162 198.709 L 149.261 282.314 148.372 282.510 C 147.883 282.617,145.350 282.900,142.744 283.137 C 134.872 283.855,126.641 285.043,119.527 286.488 C 115.819 287.242,112.640 287.858,112.464 287.858 C 112.287 287.858,112.142 292.744,112.142 298.717 L 112.142 309.576 166.391 309.576 L 220.641 309.576 220.913 307.700 C 221.062 306.668,221.869 302.626,222.705 298.717 C 223.541 294.808,224.342 290.800,224.486 289.810 L 224.746 288.011 218.622 286.737 C 211.377 285.229,204.008 284.134,194.836 283.205 L 188.154 282.527 187.902 278.776 C 187.763 276.713,187.630 232.690,187.606 180.948 L 187.562 86.871 186.278 86.944 C 185.573 86.985,180.731 87.138,175.518 87.286 " stroke="none" fill="#fbfbfb" fill-rule="evenodd"></path><path id="path1" d="M216.972 100.883 C 216.979 114.564,217.023 115.492,217.678 115.552 C 218.157 115.596,218.190 115.557,217.782 115.430 C 217.268 115.270,217.171 113.257,217.075 100.762 L 216.964 86.278 216.972 100.883 M223.791 86.754 C 224.279 86.849,225.079 86.849,225.568 86.754 C 226.056 86.660,225.656 86.583,224.679 86.583 C 223.702 86.583,223.302 86.660,223.791 86.754 M181.547 87.157 C 182.257 87.245,183.323 87.243,183.916 87.153 C 184.510 87.063,183.929 86.991,182.626 86.993 C 181.323 86.995,180.837 87.069,181.547 87.157 M164.963 87.552 C 165.672 87.640,166.739 87.638,167.332 87.548 C 167.925 87.458,167.345 87.386,166.041 87.388 C 164.738 87.390,164.253 87.464,164.963 87.552 M187.756 181.639 C 187.756 233.653,187.802 254.931,187.858 228.924 C 187.914 202.917,187.914 160.360,187.858 134.353 C 187.802 108.346,187.756 129.625,187.756 181.639 M111.921 98.519 C 111.921 104.600,111.976 107.033,112.043 103.925 C 112.109 100.817,112.109 95.842,112.042 92.869 C 111.975 89.895,111.921 92.438,111.921 98.519 M286.673 109.181 C 287.853 110.375,288.907 111.352,289.015 111.352 C 289.124 111.352,288.248 110.375,287.068 109.181 C 285.888 107.986,284.834 107.009,284.726 107.009 C 284.617 107.009,285.494 107.986,286.673 109.181 M144.427 114.791 C 144.918 114.885,145.629 114.881,146.007 114.783 C 146.384 114.684,145.982 114.607,145.114 114.611 C 144.245 114.615,143.936 114.696,144.427 114.791 M148.370 115.195 C 148.761 115.472,148.884 132.868,148.964 199.036 L 149.065 282.527 149.064 198.848 C 149.062 124.803,148.994 115.151,148.470 115.008 C 148.032 114.888,148.006 114.937,148.370 115.195 M303.744 150.049 C 303.744 150.809,303.825 151.120,303.925 150.740 C 304.024 150.360,304.024 149.738,303.925 149.358 C 303.825 148.978,303.744 149.289,303.744 150.049 M262.686 152.221 C 262.690 153.090,262.771 153.399,262.866 152.908 C 262.960 152.416,262.957 151.706,262.858 151.328 C 262.759 150.951,262.682 151.352,262.686 152.221 M303.744 157.947 C 303.744 158.707,303.825 159.018,303.925 158.638 C 304.024 158.258,304.024 157.636,303.925 157.256 C 303.825 156.876,303.744 157.187,303.744 157.947 M262.686 162.093 C 262.690 162.962,262.771 163.270,262.866 162.779 C 262.960 162.288,262.957 161.577,262.858 161.200 C 262.759 160.822,262.682 161.224,262.686 162.093 M216.962 202.273 C 216.857 202.545,216.818 209.075,216.876 216.784 L 216.980 230.800 217.177 216.288 C 217.285 208.307,217.324 201.777,217.263 201.777 C 217.202 201.777,217.066 202.000,216.962 202.273 M282.316 206.811 L 280.158 209.082 282.428 206.924 C 284.538 204.919,284.880 204.541,284.587 204.541 C 284.525 204.541,283.503 205.563,282.316 206.811 M146.594 282.602 C 146.974 282.701,147.596 282.701,147.976 282.602 C 148.356 282.503,148.045 282.421,147.285 282.421 C 146.525 282.421,146.214 282.503,146.594 282.602 M188.845 282.602 C 189.225 282.701,189.847 282.701,190.227 282.602 C 190.607 282.503,190.296 282.421,189.536 282.421 C 188.776 282.421,188.465 282.503,188.845 282.602 M142.848 283.004 C 143.339 283.098,144.050 283.095,144.427 282.996 C 144.805 282.897,144.403 282.820,143.534 282.824 C 142.665 282.829,142.356 282.909,142.848 283.004 M192.601 283.004 C 193.092 283.098,193.803 283.095,194.180 282.996 C 194.558 282.897,194.156 282.820,193.287 282.824 C 192.419 282.829,192.110 282.909,192.601 283.004 M196.742 283.392 C 197.122 283.491,197.744 283.491,198.124 283.392 C 198.504 283.292,198.193 283.211,197.433 283.211 C 196.673 283.211,196.362 283.292,196.742 283.392 M111.935 299.013 L 111.945 309.773 166.239 309.775 L 220.533 309.777 166.344 309.675 L 112.155 309.573 112.040 298.913 L 111.925 288.252 111.935 299.013 " stroke="none" fill="#84b4cc" fill-rule="evenodd"></path><path id="path2" d="M184.008 0.260 C 174.167 0.935,158.761 2.891,158.354 3.516 C 158.239 3.694,157.264 3.969,156.189 4.127 C 153.351 4.546,143.998 6.729,143.534 7.080 C 143.317 7.245,142.251 7.607,141.165 7.884 C 136.842 8.989,132.465 10.386,132.244 10.732 C 132.116 10.933,131.849 11.060,131.652 11.013 C 131.455 10.967,130.760 11.150,130.109 11.421 C 129.457 11.692,127.547 12.361,125.864 12.907 C 124.181 13.453,122.804 14.078,122.804 14.297 C 122.804 14.516,122.548 14.597,122.237 14.477 C 121.925 14.357,121.614 14.393,121.546 14.557 C 121.477 14.720,119.911 15.459,118.065 16.198 C 116.219 16.937,112.310 18.770,109.378 20.271 C 106.446 21.772,103.044 23.501,101.817 24.113 C 100.591 24.725,99.525 25.370,99.448 25.545 C 99.372 25.720,97.932 26.564,96.249 27.419 C 94.566 28.274,93.189 29.127,93.189 29.315 C 93.189 29.502,92.611 29.906,91.905 30.211 C 91.199 30.517,88.845 32.019,86.673 33.549 C 84.501 35.079,81.836 36.932,80.750 37.666 C 79.664 38.400,78.300 39.421,77.718 39.935 C 77.136 40.448,75.812 41.491,74.777 42.251 C 73.741 43.011,72.500 43.988,72.018 44.423 C 71.536 44.857,69.880 46.278,68.338 47.581 C 64.552 50.780,46.989 68.389,46.989 68.986 C 46.989 69.121,41.884 75.461,40.220 77.394 C 39.752 77.937,38.836 79.225,38.185 80.257 C 37.533 81.288,36.876 82.132,36.726 82.132 C 36.575 82.132,35.692 83.406,34.763 84.964 C 33.834 86.521,32.767 88.124,32.393 88.527 C 32.018 88.929,31.202 90.231,30.580 91.421 C 29.957 92.610,29.317 93.583,29.158 93.583 C 28.998 93.583,28.434 94.427,27.906 95.459 C 26.432 98.336,25.932 99.220,25.058 100.499 C 24.614 101.148,23.823 102.655,23.300 103.850 C 22.777 105.044,22.137 106.288,21.878 106.614 C 21.620 106.940,20.727 108.717,19.894 110.563 C 19.062 112.409,18.166 114.142,17.903 114.415 C 17.641 114.688,17.309 115.310,17.167 115.797 C 16.658 117.538,14.903 121.820,14.618 122.014 C 14.459 122.122,13.650 124.255,12.820 126.752 C 11.990 129.250,11.176 131.385,11.012 131.498 C 10.673 131.731,7.897 141.373,7.897 142.320 C 7.897 142.662,7.701 142.942,7.460 142.942 C 7.220 142.942,7.121 143.197,7.241 143.509 C 7.360 143.820,7.313 144.131,7.135 144.200 C 6.794 144.331,3.949 156.941,3.949 158.322 C 3.949 158.767,3.794 159.131,3.605 159.131 C 3.416 159.131,3.163 159.886,3.042 160.809 C 2.922 161.732,2.469 165.153,2.036 168.411 C -0.079 184.328,-0.402 204.183,1.205 219.546 C 1.859 225.805,3.246 235.131,3.553 235.341 C 3.712 235.449,4.053 236.782,4.310 238.302 C 5.150 243.263,6.780 250.145,7.148 250.281 C 7.346 250.353,7.411 250.568,7.294 250.758 C 7.177 250.948,7.255 251.421,7.468 251.810 C 7.681 252.199,8.417 254.561,9.102 257.058 C 9.788 259.556,10.589 262.043,10.881 262.586 C 11.174 263.129,12.047 265.500,12.823 267.855 C 13.598 270.211,14.496 272.400,14.816 272.721 C 15.137 273.042,15.399 273.514,15.398 273.770 C 15.394 274.604,17.848 280.355,18.208 280.355 C 18.401 280.355,18.559 280.597,18.559 280.892 C 18.559 281.765,24.859 294.442,25.523 294.907 C 25.725 295.048,26.591 296.540,27.448 298.223 C 28.305 299.906,29.139 301.283,29.303 301.283 C 29.466 301.283,29.982 302.034,30.450 302.952 C 30.918 303.869,32.254 305.980,33.420 307.643 C 34.585 309.306,35.538 310.871,35.538 311.120 C 35.538 311.370,35.800 311.675,36.120 311.798 C 36.440 311.921,37.258 312.937,37.937 314.056 C 38.617 315.175,39.508 316.446,39.917 316.881 C 40.943 317.969,45.474 323.647,46.204 324.758 C 46.532 325.258,47.332 326.213,47.981 326.882 C 48.630 327.550,50.008 329.038,51.043 330.188 C 56.645 336.417,66.026 345.288,73.306 351.241 C 75.293 352.866,77.003 354.195,77.106 354.195 C 77.210 354.195,77.974 354.817,78.803 355.577 C 79.633 356.338,80.520 356.960,80.774 356.960 C 81.027 356.960,81.694 357.418,82.255 357.979 C 83.102 358.826,87.450 361.698,87.885 361.698 C 87.956 361.698,88.459 362.109,89.001 362.612 C 89.544 363.115,90.797 363.943,91.786 364.451 C 92.774 364.960,93.583 365.492,93.583 365.634 C 93.583 365.776,94.961 366.592,96.644 367.448 C 98.327 368.303,99.833 369.202,99.991 369.445 C 100.148 369.688,100.859 370.118,101.570 370.400 C 102.281 370.682,104.018 371.581,105.429 372.397 C 106.841 373.213,109.329 374.464,110.958 375.177 C 112.586 375.889,114.008 376.583,114.116 376.719 C 114.225 376.855,116.091 377.657,118.263 378.503 C 120.434 379.348,122.312 380.180,122.435 380.350 C 122.558 380.521,124.512 381.286,126.778 382.051 C 129.044 382.816,131.431 383.687,132.083 383.986 C 132.734 384.286,135.222 385.083,137.611 385.758 C 140.000 386.433,142.286 387.174,142.690 387.404 C 143.529 387.880,156.907 390.905,158.210 390.913 C 158.680 390.916,159.125 391.077,159.197 391.271 C 159.550 392.218,179.333 394.301,191.708 394.695 C 205.540 395.135,231.942 393.118,235.933 391.316 C 236.367 391.120,237.789 390.762,239.092 390.520 C 243.639 389.678,252.117 387.693,252.316 387.425 C 252.427 387.276,254.916 386.470,257.848 385.633 C 260.780 384.797,263.268 384.001,263.376 383.863 C 263.485 383.726,265.661 382.912,268.213 382.055 C 270.765 381.197,272.853 380.383,272.853 380.245 C 272.853 380.107,274.630 379.322,276.802 378.499 C 278.973 377.677,280.750 376.875,280.750 376.718 C 280.750 376.561,281.417 376.221,282.231 375.961 C 283.045 375.702,284.811 374.918,286.154 374.220 C 287.498 373.523,289.985 372.241,291.682 371.372 C 293.380 370.503,294.829 369.654,294.904 369.484 C 294.978 369.315,295.956 368.713,297.075 368.147 C 298.195 367.581,300.302 366.343,301.756 365.395 C 303.210 364.448,304.555 363.672,304.744 363.672 C 304.934 363.672,305.787 363.050,306.641 362.291 C 307.495 361.531,308.342 360.909,308.524 360.909 C 308.885 360.908,312.176 358.672,313.108 357.793 C 313.428 357.492,314.541 356.721,315.581 356.081 C 316.622 355.441,317.473 354.780,317.473 354.612 C 317.473 354.445,318.450 353.658,319.645 352.865 C 320.839 352.072,321.816 351.242,321.816 351.020 C 321.816 350.798,322.152 350.489,322.563 350.333 C 323.312 350.048,326.080 347.728,330.884 343.358 C 336.038 338.670,348.272 325.937,348.272 325.260 C 348.272 325.140,348.813 324.450,349.473 323.725 C 352.453 320.457,354.195 318.349,354.195 318.013 C 354.195 317.813,354.684 317.112,355.281 316.456 C 355.879 315.800,357.078 314.208,357.947 312.919 C 358.815 311.630,359.912 310.144,360.385 309.618 C 360.857 309.092,361.640 307.890,362.125 306.947 C 362.610 306.004,363.129 305.232,363.277 305.232 C 363.426 305.232,363.975 304.388,364.496 303.356 C 365.018 302.325,365.668 301.246,365.940 300.959 C 366.213 300.672,366.436 300.198,366.436 299.906 C 366.436 299.614,366.642 299.306,366.893 299.222 C 367.384 299.059,369.728 294.877,372.379 289.437 C 373.278 287.591,374.175 286.022,374.371 285.949 C 374.568 285.877,374.729 285.652,374.729 285.449 C 374.729 285.245,375.764 282.906,377.030 280.249 C 378.295 277.593,379.840 273.998,380.463 272.261 C 381.085 270.523,381.713 269.013,381.858 268.904 C 382.002 268.796,382.807 266.575,383.645 263.968 C 384.484 261.362,385.274 259.141,385.400 259.033 C 385.675 258.796,387.024 254.065,387.990 249.951 C 388.373 248.322,388.811 246.900,388.964 246.792 C 389.267 246.577,391.482 235.692,391.937 232.182 C 392.092 230.987,392.352 229.921,392.516 229.812 C 394.070 228.778,395.460 195.501,394.513 181.996 C 393.956 174.059,392.925 165.322,392.514 165.055 C 392.347 164.946,392.083 163.791,391.928 162.488 C 391.520 159.061,389.368 148.514,388.920 147.744 C 388.710 147.383,387.921 144.601,387.167 141.562 C 386.413 138.522,385.616 135.975,385.396 135.902 C 385.175 135.828,384.995 135.569,384.995 135.324 C 384.995 134.559,382.128 125.775,381.809 125.564 C 381.643 125.454,381.119 124.210,380.646 122.800 C 380.173 121.390,379.075 118.727,378.207 116.881 C 375.184 110.457,371.803 103.646,371.151 102.665 C 370.789 102.122,369.876 100.506,369.122 99.074 C 367.792 96.551,365.563 92.875,363.801 90.298 C 363.329 89.607,362.390 88.102,361.715 86.952 C 361.039 85.802,360.226 84.761,359.908 84.639 C 359.589 84.517,359.329 84.256,359.329 84.060 C 359.329 83.469,356.054 78.830,355.091 78.056 C 354.599 77.660,354.195 77.089,354.195 76.786 C 354.195 76.483,353.599 75.639,352.869 74.910 C 352.140 74.180,351.474 73.378,351.389 73.127 C 351.237 72.679,348.452 69.412,346.086 66.907 C 345.427 66.209,344.249 64.862,343.469 63.914 C 340.763 60.628,327.516 47.779,326.833 47.779 C 326.731 47.779,325.939 47.113,325.073 46.298 C 322.357 43.743,319.831 41.672,319.103 41.402 C 318.718 41.260,317.883 40.593,317.248 39.920 C 316.613 39.247,315.953 38.697,315.782 38.697 C 315.610 38.697,314.364 37.849,313.013 36.814 C 311.661 35.778,309.846 34.497,308.980 33.967 C 308.113 33.438,307.226 32.795,307.009 32.538 C 306.792 32.282,305.814 31.635,304.837 31.101 C 303.860 30.566,301.785 29.303,300.227 28.293 C 298.669 27.282,297.227 26.456,297.023 26.456 C 296.818 26.456,296.171 26.078,295.583 25.615 C 294.995 25.153,293.239 24.150,291.680 23.385 C 290.121 22.621,288.755 21.860,288.645 21.693 C 288.399 21.321,282.169 18.559,281.575 18.559 C 281.338 18.559,281.145 18.395,281.145 18.194 C 281.145 17.993,279.235 17.083,276.900 16.172 C 274.566 15.261,272.567 14.399,272.458 14.255 C 272.349 14.112,270.750 13.484,268.904 12.859 C 267.058 12.234,264.926 11.416,264.166 11.041 C 262.678 10.306,253.197 7.502,252.200 7.502 C 251.868 7.502,251.537 7.331,251.464 7.122 C 251.332 6.739,239.262 3.949,237.737 3.949 C 237.288 3.949,236.920 3.802,236.920 3.622 C 236.920 3.005,223.139 1.152,213.031 0.409 C 208.090 0.046,188.582 -0.054,184.008 0.260 M235.538 86.855 C 237.058 87.066,239.191 87.421,240.276 87.643 C 241.362 87.864,244.294 88.409,246.792 88.852 C 251.495 89.688,261.308 92.598,264.758 94.181 C 277.843 100.184,285.810 106.137,292.352 114.799 C 309.641 137.692,308.045 176.529,288.826 200.616 C 282.080 209.071,270.443 217.801,260.908 221.559 C 259.796 221.998,257.986 222.778,256.886 223.294 C 254.932 224.211,247.770 226.482,243.040 227.686 C 241.737 228.018,237.739 228.730,234.156 229.269 C 230.573 229.807,226.575 230.413,225.271 230.615 C 223.968 230.816,221.525 230.985,219.842 230.989 L 216.782 230.997 216.782 216.411 L 216.782 201.825 218.460 201.616 C 219.383 201.501,220.760 201.333,221.520 201.243 C 239.802 199.074,253.388 190.345,258.606 177.414 C 259.289 175.720,260.012 174.039,260.212 173.678 C 263.056 168.539,262.941 147.161,260.038 141.490 C 259.724 140.877,258.936 139.179,258.287 137.716 C 254.515 129.224,244.473 121.443,233.761 118.713 C 226.258 116.801,224.413 116.450,220.632 116.213 L 216.782 115.972 216.782 100.964 L 216.782 85.957 224.778 86.213 C 229.176 86.355,234.018 86.643,235.538 86.855 M188.351 184.403 L 188.351 282.330 190.030 282.327 C 192.824 282.322,204.076 283.541,208.490 284.326 C 217.427 285.916,225.161 287.418,225.341 287.598 C 225.580 287.837,224.383 294.498,223.910 295.558 C 223.717 295.992,223.096 298.924,222.530 302.073 C 221.965 305.222,221.404 308.287,221.283 308.885 L 221.063 309.970 166.208 309.970 L 111.352 309.970 111.352 298.904 L 111.352 287.838 112.299 287.478 C 112.820 287.280,115.352 286.745,117.926 286.289 C 120.500 285.834,123.672 285.205,124.975 284.893 C 127.916 284.189,138.661 282.848,144.273 282.485 L 148.470 282.213 148.470 198.757 L 148.470 115.301 146.894 115.301 C 144.152 115.301,133.380 114.127,130.503 113.514 C 128.983 113.190,124.942 112.469,121.524 111.912 C 118.105 111.354,114.462 110.689,113.429 110.434 L 111.550 109.970 111.550 98.717 L 111.550 87.463 143.873 87.190 C 161.651 87.039,176.296 86.817,176.417 86.696 C 176.538 86.575,179.273 86.476,182.494 86.476 L 188.351 86.476 188.351 184.403 " stroke="none" fill="#04649b" fill-rule="evenodd"></path><path id="path3" d="M218.668 86.371 C 219.597 86.454,221.018 86.453,221.827 86.368 C 222.635 86.283,221.876 86.215,220.138 86.216 C 218.401 86.218,217.739 86.287,218.668 86.371 M177.394 87.154 C 177.991 87.244,178.968 87.244,179.566 87.154 C 180.163 87.063,179.674 86.989,178.480 86.989 C 177.285 86.989,176.797 87.063,177.394 87.154 M159.419 87.551 C 160.120 87.638,161.363 87.639,162.183 87.554 C 163.002 87.468,162.428 87.397,160.908 87.395 C 159.388 87.393,158.718 87.463,159.419 87.551 M283.687 205.824 L 282.527 207.108 283.810 205.948 C 284.516 205.310,285.094 204.732,285.094 204.665 C 285.094 204.359,284.768 204.628,283.687 205.824 " stroke="none" fill="#4b90b6" fill-rule="evenodd"></path><path id="path4" d="M262.729 157.157 C 262.729 159.220,262.795 160.064,262.877 159.033 C 262.958 158.001,262.958 156.313,262.877 155.281 C 262.795 154.250,262.729 155.094,262.729 157.157 " stroke="none" fill="#74acc4" fill-rule="evenodd"></path><path id="path5" d="M223.795 86.360 C 224.287 86.455,224.997 86.451,225.375 86.352 C 225.752 86.253,225.350 86.176,224.482 86.181 C 223.613 86.185,223.304 86.266,223.795 86.360 M185.493 86.755 C 185.984 86.850,186.695 86.846,187.073 86.747 C 187.450 86.648,187.048 86.571,186.180 86.575 C 185.311 86.580,185.002 86.661,185.493 86.755 M148.664 198.815 C 148.664 244.857,148.710 263.633,148.766 240.541 C 148.822 217.449,148.822 179.778,148.766 156.829 C 148.710 133.880,148.664 152.774,148.664 198.815 M188.099 278.776 C 188.099 280.839,188.165 281.683,188.247 280.652 C 188.328 279.620,188.328 277.932,188.247 276.900 C 188.165 275.869,188.099 276.713,188.099 278.776 " stroke="none" fill="#3484ac" fill-rule="evenodd"></path><path id="path6" d="M181.547 86.762 C 182.257 86.850,183.323 86.848,183.916 86.758 C 184.510 86.668,183.929 86.596,182.626 86.598 C 181.323 86.600,180.837 86.674,181.547 86.762 M187.957 180.967 L 188.154 275.420 188.254 181.264 C 188.308 129.479,188.219 86.976,188.056 86.812 C 187.893 86.649,187.848 129.019,187.957 180.967 M173.050 87.154 C 173.648 87.244,174.625 87.244,175.222 87.154 C 175.819 87.063,175.331 86.989,174.136 86.989 C 172.942 86.989,172.453 87.063,173.050 87.154 M111.526 98.519 C 111.526 104.600,111.581 107.033,111.648 103.925 C 111.715 100.817,111.714 95.842,111.647 92.869 C 111.580 89.895,111.526 92.438,111.526 98.519 M111.526 298.914 C 111.526 304.886,111.581 307.330,111.648 304.344 C 111.715 301.357,111.715 296.471,111.648 293.485 C 111.581 290.499,111.526 292.942,111.526 298.914 " stroke="none" fill="#247ca4" fill-rule="evenodd"></path><path id="path7" d="M168.911 87.157 C 169.621 87.245,170.687 87.243,171.281 87.153 C 171.874 87.063,171.293 86.991,169.990 86.993 C 168.687 86.995,168.202 87.069,168.911 87.157 " stroke="none" fill="#14749c" fill-rule="evenodd"></path><path id="path8" d="M177.394 86.759 C 177.991 86.849,178.968 86.849,179.566 86.759 C 180.163 86.668,179.674 86.594,178.480 86.594 C 177.285 86.594,176.797 86.668,177.394 86.759 M160.612 87.163 C 161.969 87.240,164.191 87.240,165.548 87.163 C 166.905 87.086,165.795 87.023,163.080 87.023 C 160.365 87.023,159.255 87.086,160.612 87.163 M123.325 87.562 C 129.802 87.622,140.286 87.622,146.623 87.561 C 152.959 87.500,147.660 87.451,134.847 87.451 C 122.034 87.451,116.849 87.501,123.325 87.562 M130.339 113.467 C 130.429 113.545,131.125 113.722,131.885 113.862 C 132.858 114.040,133.092 114.000,132.675 113.727 C 132.140 113.376,129.947 113.133,130.339 113.467 M251.908 128.825 C 253.545 130.569,253.899 130.882,253.899 130.586 C 253.899 130.522,253.055 129.678,252.024 128.710 L 250.148 126.950 251.908 128.825 M224.980 230.487 C 225.471 230.581,226.182 230.577,226.559 230.479 C 226.937 230.380,226.535 230.303,225.666 230.307 C 224.798 230.311,224.489 230.392,224.980 230.487 " stroke="none" fill="#08709c" fill-rule="evenodd"></path></g></svg>